<mxfile host="app.diagrams.net" modified="2022-06-22T01:18:27.561Z" agent="5.0 (Macintosh; Intel Mac OS X 10_15_7) AppleWebKit/605.1.15 (KHTML, like Gecko) Version/15.2 Safari/605.1.15" etag="ghTD2OQ16rqCyE8tZQEd" version="20.0.2" type="github">
  <diagram id="XyGg_j0GVr-NyZMT5KGe" name="Page-1">
    <mxGraphModel dx="1298" dy="707" grid="1" gridSize="10" guides="1" tooltips="1" connect="1" arrows="1" fold="1" page="1" pageScale="1" pageWidth="827" pageHeight="1169" math="0" shadow="0">
      <root>
        <mxCell id="0" />
        <mxCell id="1" parent="0" />
      </root>
    </mxGraphModel>
  </diagram>
</mxfile>
